<!-- icon666.com - MILLIONS vector ICONS FREE --><svg enable-background="new 0 0 32 32" viewBox="0 0 32 32" xmlns="http://www.w3.org/2000/svg"><g id="Menu"><path d="m23.229 2.104h-14.458c-3.676 0-6.666 2.99-6.666 6.666v14.459c0 3.676 2.99 6.666 6.666 6.666h14.459c3.676 0 6.666-2.99 6.666-6.666v-14.458c0-3.676-2.991-6.667-6.667-6.667z" fill="#4d6aa6"></path><g fill="#c3cbd1"><path d="m8.932 25.396c-1.322 0-2.398-1.075-2.398-2.396s1.076-2.396 2.398-2.396c1.321 0 2.396 1.075 2.396 2.396s-1.075 2.396-2.396 2.396z"></path><path d="m8.932 18.396c-1.322 0-2.398-1.075-2.398-2.396s1.076-2.396 2.398-2.396c1.321 0 2.396 1.075 2.396 2.396s-1.075 2.396-2.396 2.396z"></path><path d="m8.932 11.396c-1.322 0-2.398-1.075-2.398-2.396s1.076-2.396 2.398-2.396c1.321 0 2.396 1.075 2.396 2.396s-1.075 2.396-2.396 2.396z"></path><path d="m24.112 24.825h-8.324c-.97 0-1.759-.813-1.759-1.812s.789-1.811 1.759-1.811h8.324c.954 0 1.729.812 1.729 1.811.001 1-.775 1.812-1.729 1.812z"></path><path d="m24.112 17.825h-8.324c-.97 0-1.759-.813-1.759-1.812s.789-1.811 1.759-1.811h8.324c.954 0 1.729.812 1.729 1.811.001 1-.775 1.812-1.729 1.812z"></path><path d="m24.112 10.825h-8.324c-.97 0-1.759-.813-1.759-1.812s.789-1.811 1.759-1.811h8.324c.954 0 1.729.812 1.729 1.811.001 1-.775 1.812-1.729 1.812z"></path></g><path d="m7.98 29.85c-3.31-.39-5.88-3.21-5.88-6.62v-14.46c0-3.12 2.15-5.75 5.051-6.46-1.211.71-2.371 2.06-2.641 4.58v17.98c.33 3.1 2.02 4.42 3.47 4.98z" fill="#fff" opacity=".2"></path><path d="m29.9 13.02v10.21c0 3.68-2.99 6.67-6.67 6.67h-4.11c1.83-.48 5.755-1.253 8.255-4.503 0-.001 1.745-2.367 2.525-12.377z" fill="#182f56" opacity=".18"></path></g></svg>